<?xml version="1.0" standalone="no"?>
<!DOCTYPE svg PUBLIC "-//W3C//DTD SVG 20010904//EN"
 "http://www.w3.org/TR/2001/REC-SVG-20010904/DTD/svg10.dtd">
<svg version="1.0" xmlns="http://www.w3.org/2000/svg"
 width="260.000000pt" height="260.000000pt" viewBox="0 0 260.000000 260.000000"
 preserveAspectRatio="xMidYMid meet">
<metadata>
Created by potrace 1.11, written by Peter Selinger 2001-2013
</metadata>
<g transform="translate(0.000000,260.000000) scale(0.100000,-0.100000)"
fill="#000000" stroke="none">
<path d="M1196 2367 c32 -80 84 -251 99 -322 14 -64 26 -132 30 -170 2 -22 7
-62 11 -90 6 -52 7 -268 0 -320 -2 -16 -7 -48 -10 -70 -13 -81 -18 -74 76
-105 124 -40 124 -41 80 -70 -20 -14 -79 -55 -132 -92 -52 -38 -102 -72 -110
-78 -8 -6 -62 -44 -120 -84 -147 -104 -183 -129 -284 -199 -48 -34 -131 -92
-185 -130 -53 -37 -120 -83 -149 -103 -28 -20 -54 -39 -56 -43 -3 -4 124 57
282 136 310 155 321 158 370 109 24 -24 30 -51 19 -96 -11 -49 -138 -484 -143
-492 -3 -4 0 -8 5 -8 6 0 11 4 11 10 0 5 86 184 191 397 l190 388 72 0 c96 0
165 11 250 40 139 49 286 163 353 274 25 42 41 55 107 87 42 21 77 42 77 47 0
22 -78 101 -121 123 -54 27 -131 32 -186 12 -40 -15 8 -71 -400 464 -175 229
-328 429 -340 445 -18 23 -16 13 13 -60z"/>
<path d="M1230 1673 c-14 -2 -68 -13 -120 -23 -52 -10 -108 -21 -125 -24 -16
-3 -55 -10 -85 -16 -30 -6 -66 -13 -80 -16 -14 -2 -38 -7 -55 -11 -16 -4 -32
-7 -35 -8 -3 -1 -27 -5 -55 -9 -27 -4 -54 -10 -59 -14 -5 -3 29 -17 75 -32 46
-15 191 -63 322 -105 131 -43 241 -74 244 -71 4 4 8 12 9 19 1 7 5 28 8 47 3
19 9 88 12 153 7 129 11 121 -56 110z"/>
</g>
</svg>
